<svg width="18" height="28" viewBox="0 0 18 28" fill="none" xmlns="http://www.w3.org/2000/svg">
<path d="M7.43614 0.144212L8.57176 0.362059L9.66765 0.567294L10.7926 0.781701L12.9525 1.1893L13.6628 1.32574C13.7095 1.3346 13.7513 1.36167 13.7797 1.40142C14.3924 2.26554 14.9917 3.14553 15.5775 4.04137C15.6338 4.12737 15.6525 4.2124 15.6335 4.29648L15.4241 5.43846L15.0044 7.74591L14.7883 8.92229C14.9469 8.94178 15.1051 8.95267 15.2629 8.95496C15.5234 8.9584 15.6814 8.96414 15.737 8.97216C16.271 9.04783 16.6974 9.32053 17.0165 9.79023C17.2534 10.1388 17.4782 10.4954 17.6909 10.86C17.7551 10.97 17.8129 11.0839 17.8644 11.2017C17.9782 11.5399 18.0204 11.8995 17.9909 12.2806L17.9937 13.4971L17.9943 14.6029V15.808L17.9948 16.8915V18.1005L17.9954 19.149L17.9948 20.3822V21.4811V22.6736V23.7353L17.992 24.9776C18.0111 25.3636 17.9902 25.7295 17.9293 26.0754C17.7017 26.9441 17.1818 27.5371 16.3695 27.8543C16.015 27.9667 15.6516 28.0133 15.2792 27.9942L14.1564 27.9982L13.0516 27.9988L11.9758 27.9982L10.8173 27.9988L9.69283 27.9976L8.58911 27.9988L7.463 27.9982L6.33521 27.9993L5.22029 27.9982L4.03654 27.9999L2.97423 27.9948C2.59923 28.0108 2.23412 27.99 1.8789 27.9323C0.928911 27.6579 0.326117 27.0383 0.0705224 26.0737C0.0369406 25.8925 0.0169776 25.7309 0.0106344 25.5887C0.00466428 25.4553 0.00149191 25.2432 0.00111878 24.9524L0.00335805 23.7897L0.000560244 22.6713L0.00335805 21.4892L0.000560244 20.3782L0.00335805 19.2035L0.000560244 18.0856L0.00335805 16.9155L0.000560244 15.7919L0.00335805 14.6155L0 13.4982L0.00167902 12.3001C-0.00279855 11.8942 0.00447779 11.5749 0.134887 11.2137C0.208021 11.0413 0.294214 10.8756 0.393467 10.7167C0.621077 10.3513 0.810256 10.057 0.961001 9.8338C1.36137 9.24141 1.90857 8.94617 2.60259 8.94808C3.3246 8.94961 4.00967 8.94885 4.6578 8.94579C4.67869 8.94579 4.69101 8.93509 4.69474 8.91369L4.90574 7.73044L5.10164 6.62228L5.51246 4.28502L5.70052 3.21184L5.91376 1.99591L6.10909 0.880878C6.1326 0.751699 6.15984 0.613347 6.19081 0.465823C6.2173 0.339701 6.2757 0.230205 6.36599 0.137333C6.44211 0.0719791 6.52625 0.0287919 6.61842 0.00777165C6.68521 -0.00789802 6.77495 0.000127913 6.88763 0.0318494C7.07047 0.0830625 7.2533 0.120517 7.43614 0.144212ZM7.14062 2.01597L6.94024 3.13158L6.73148 4.30566L6.52831 5.4333L6.31562 6.63547L6.27644 6.92154L6.11917 7.74419L5.91768 8.86897L5.70108 10.082L5.50462 11.1799L5.36638 11.9945C5.36302 12.014 5.37104 12.0237 5.39044 12.0237L6.32234 12.0266L7.45069 12.0272H8.57176H9.69228L10.7966 12.0266L11.9227 12.0255L12.9956 12.0174C13.0146 12.0174 13.0256 12.0079 13.0286 11.9888L13.37 10.0362L13.5631 8.90967L13.7652 7.73732L13.9583 6.61999L14.3299 4.46044C14.3359 4.4249 14.329 4.39222 14.3092 4.36241L13.4596 3.10177L13.1193 2.60531C13.1033 2.56403 13.0784 2.52505 13.0449 2.48836C13.0172 2.45816 12.9788 2.4381 12.9296 2.42816C12.5811 2.35631 12.2365 2.28962 11.8958 2.22809L10.8676 2.03203L8.57232 1.58945L7.49043 1.38307L7.29173 1.34638C7.27233 1.34294 7.26076 1.35116 7.25703 1.37103L7.14062 2.01597ZM3.04531 11.1695C2.90595 11.5886 3.12311 12.002 3.57926 12.0277C3.77889 12.0392 3.9718 12.0327 4.15799 12.0083L4.29232 11.2383L4.3578 10.8393C4.36116 10.8183 4.35239 10.8076 4.3315 10.8072L4.07795 10.8032C3.85669 10.7918 3.66695 10.7933 3.50874 10.8078C3.28412 10.8292 3.12964 10.9498 3.04531 11.1695ZM14.3842 11.1661L14.2393 11.9905C14.2359 12.0096 14.2435 12.0201 14.2622 12.022C14.7855 12.0771 15.1157 11.7027 14.9534 11.1655C14.8628 10.9431 14.7027 10.8279 14.4732 10.8198C14.4546 10.8191 14.4435 10.8283 14.4402 10.8474L14.3842 11.1661ZM7.4227 13.551C7.04674 13.6604 6.68214 13.8071 6.33409 13.9889C5.99642 14.1655 5.67596 14.3743 5.37701 14.6127C5.32187 14.6566 5.26725 14.7018 5.21358 14.748C4.85991 15.0508 4.54158 15.3944 4.26489 15.7718C4.19855 15.8627 4.1344 15.9556 4.07292 16.0499C3.89225 16.3273 3.73389 16.6195 3.59941 16.9236C3.43861 17.2869 3.31282 17.6657 3.22386 18.0546C3.13563 18.4386 3.0839 18.8305 3.06938 19.2247C3.05597 19.5939 3.07489 19.9638 3.12591 20.33C3.18434 20.7444 3.28392 21.1516 3.42311 21.5454C3.73103 22.4172 4.22779 23.2063 4.87608 23.8534C4.94354 23.9206 5.01274 23.9865 5.08317 24.0506C5.45966 24.3921 5.87653 24.6838 6.32402 24.9191C6.39221 24.955 6.46123 24.9895 6.53055 25.0223C6.81035 25.1555 7.09964 25.2665 7.39584 25.3542C7.78735 25.4701 8.18944 25.5446 8.59583 25.5767C8.95367 25.6053 9.31334 25.6007 9.67045 25.5629C10.068 25.521 10.4604 25.4386 10.8419 25.317C11.1024 25.2338 11.3571 25.1324 11.6042 25.0137C11.7365 24.95 11.8669 24.8812 11.9943 24.8079C12.8677 24.3053 13.6041 23.5863 14.1363 22.7166C14.1553 22.6853 14.1742 22.6537 14.1928 22.622C14.3942 22.2796 14.5623 21.9178 14.6948 21.5419C14.8303 21.158 14.928 20.761 14.9864 20.3569C15.0412 19.9786 15.0612 19.5959 15.0463 19.2138C15.0311 18.8199 14.979 18.4285 14.8907 18.0449C14.7973 17.6401 14.664 17.2459 14.4928 16.8685C14.4052 16.6758 14.3076 16.4874 14.2006 16.305C14.0929 16.1203 13.9757 15.9413 13.8497 15.7696C13.3294 15.0602 12.6655 14.475 11.9036 14.0543C11.5586 13.8637 11.196 13.7081 10.8212 13.5899C9.71575 13.2412 8.53542 13.2277 7.4227 13.551Z" fill="#295E56"/>
<path d="M8.55586 2.38023L9.67749 2.59579L10.7896 2.80962L11.8928 3.02059L12.7659 3.18799L12.5605 4.32996C12.5545 4.34678 12.545 4.36111 12.5319 4.37296C12.5181 4.38633 12.5017 4.39111 12.4827 4.38729L10.7661 4.05708L9.72786 3.85701L8.55754 3.63171L7.78683 3.48495C7.76146 3.47998 7.7512 3.4645 7.75605 3.43851L7.80474 3.16792L7.9609 2.31259C7.96267 2.30297 7.96807 2.29445 7.97592 2.28887C7.98378 2.28329 7.99346 2.2811 8.00288 2.28278L8.55586 2.38023Z" fill="#295E56"/>
<path d="M7.39427 4.72852L8.55844 4.94178L9.6812 5.15045L10.8006 5.3574L11.6625 5.51735L11.8802 5.55748L13.0209 5.76787L13.3282 5.83265C13.3472 5.83648 13.355 5.84832 13.3517 5.8682L13.2252 6.61862C13.2062 6.73748 13.1847 6.86303 13.1608 6.99527C13.153 7.03998 13.1226 7.05049 13.0696 7.0268L11.9155 6.81239L10.8084 6.6106L10.3926 6.53378L9.70694 6.40651L8.53326 6.18866L7.43961 5.98687L7.1911 5.94215C7.18564 5.94113 7.18044 5.939 7.17579 5.93588C7.17114 5.93275 7.16713 5.9287 7.16401 5.92396C7.16089 5.91921 7.15871 5.91387 7.15759 5.90823C7.15648 5.9026 7.15645 5.89679 7.15752 5.89113L7.24987 5.41703C7.27786 5.15293 7.32599 4.92343 7.39427 4.72852Z" fill="#295E56"/>
<path d="M7.43342 7.28087L8.57856 7.49298L9.67501 7.69363L11.9065 8.10811L12.8227 8.27264C12.8312 8.27417 12.8392 8.27738 12.8464 8.2821C12.8536 8.28681 12.8599 8.29294 12.8648 8.30014C12.8696 8.30733 12.8731 8.31544 12.8749 8.324C12.8767 8.33257 12.8769 8.34142 12.8754 8.35004L12.7813 8.88433L12.6828 9.45934C12.682 9.46409 12.6803 9.46863 12.6778 9.4727C12.6752 9.47677 12.6719 9.48029 12.668 9.48305C12.6641 9.48582 12.6597 9.48779 12.655 9.48883C12.6504 9.48988 12.6456 9.48998 12.6408 9.48915L11.864 9.35156L10.7955 9.15148L9.63079 8.93765L7.45917 8.53463L6.71309 8.39418C6.69443 8.39074 6.6866 8.37947 6.68958 8.36036L6.79313 7.73089L6.88884 7.21723C6.89257 7.19774 6.90395 7.18972 6.92298 7.19316L7.43342 7.28087Z" fill="#295E56"/>
<path d="M9.6551 16.917L9.65621 18.0722L9.65565 19.2291L9.65733 19.5862C9.54577 19.9034 9.35715 20.0643 9.09148 20.0689C8.90715 20.072 8.71797 20.0731 8.52395 20.0724L7.44429 20.0729L6.30307 20.0701L5.20494 20.0741C4.98629 20.0813 4.83125 20.0745 4.73984 20.0534C4.36036 19.9667 4.20887 19.7013 4.28536 19.2572C4.36409 19.0099 4.5389 18.8744 4.8098 18.8507C4.87995 18.8446 5.00924 18.8415 5.19767 18.8415H6.32546L7.41575 18.8398L8.4288 18.8352C8.44783 18.8352 8.45734 18.8255 8.45734 18.806L8.45846 18.0642V16.9222L8.45902 15.7659C8.46014 15.6589 8.48309 15.5551 8.52786 15.4546C8.69577 15.1985 8.92133 15.1041 9.20454 15.1714C9.43439 15.2257 9.57655 15.3564 9.63103 15.5635C9.64745 15.625 9.65621 15.8033 9.65733 16.0984C9.65883 16.3655 9.65808 16.6384 9.6551 16.917Z" fill="#295E56"/>
</svg>
