<svg width="40" height="40" viewBox="0 0 40 40" fill="none" xmlns="http://www.w3.org/2000/svg">
<g id="vuesax/outline/bank">
<g id="bank">
<path id="Vector" d="M34.9997 19.5836H4.99967C3.39967 19.5836 2.08301 18.2669 2.08301 16.6669V11.1335C2.08301 10.0002 2.8663 8.85022 3.9163 8.43355L18.9163 2.43359C19.5496 2.18359 20.4497 2.18359 21.083 2.43359L36.083 8.43355C37.133 8.85022 37.9163 10.0169 37.9163 11.1335V16.6669C37.9163 18.2669 36.5997 19.5836 34.9997 19.5836ZM19.9997 4.7336C19.933 4.7336 19.8664 4.73352 19.833 4.75018L4.84963 10.7502C4.74963 10.8002 4.58301 11.0169 4.58301 11.1335V16.6669C4.58301 16.9002 4.76634 17.0836 4.99967 17.0836H34.9997C35.233 17.0836 35.4163 16.9002 35.4163 16.6669V11.1335C35.4163 11.0169 35.2664 10.8002 35.1497 10.7502L20.1497 4.75018C20.1164 4.73352 20.0663 4.7336 19.9997 4.7336Z" fill="#DB7F28"/>
<path id="Vector_2" d="M36.6663 37.9167H3.33301C2.64967 37.9167 2.08301 37.35 2.08301 36.6667V31.6667C2.08301 30.0667 3.39967 28.75 4.99967 28.75H34.9997C36.5997 28.75 37.9163 30.0667 37.9163 31.6667V36.6667C37.9163 37.35 37.3497 37.9167 36.6663 37.9167ZM4.58301 35.4167H35.4163V31.6667C35.4163 31.4333 35.233 31.25 34.9997 31.25H4.99967C4.76634 31.25 4.58301 31.4333 4.58301 31.6667V35.4167Z" fill="#DB7F28"/>
<path id="Vector_3" d="M6.66699 31.2497C5.98366 31.2497 5.41699 30.683 5.41699 29.9997V18.333C5.41699 17.6497 5.98366 17.083 6.66699 17.083C7.35033 17.083 7.91699 17.6497 7.91699 18.333V29.9997C7.91699 30.683 7.35033 31.2497 6.66699 31.2497Z" fill="#DB7F28"/>
<path id="Vector_4" d="M13.333 31.2497C12.6497 31.2497 12.083 30.683 12.083 29.9997V18.333C12.083 17.6497 12.6497 17.083 13.333 17.083C14.0163 17.083 14.583 17.6497 14.583 18.333V29.9997C14.583 30.683 14.0163 31.2497 13.333 31.2497Z" fill="#DB7F28"/>
<path id="Vector_5" d="M20 31.2497C19.3167 31.2497 18.75 30.683 18.75 29.9997V18.333C18.75 17.6497 19.3167 17.083 20 17.083C20.6833 17.083 21.25 17.6497 21.25 18.333V29.9997C21.25 30.683 20.6833 31.2497 20 31.2497Z" fill="#DB7F28"/>
<path id="Vector_6" d="M26.667 31.2497C25.9837 31.2497 25.417 30.683 25.417 29.9997V18.333C25.417 17.6497 25.9837 17.083 26.667 17.083C27.3503 17.083 27.917 17.6497 27.917 18.333V29.9997C27.917 30.683 27.3503 31.2497 26.667 31.2497Z" fill="#DB7F28"/>
<path id="Vector_7" d="M33.333 31.2497C32.6497 31.2497 32.083 30.683 32.083 29.9997V18.333C32.083 17.6497 32.6497 17.083 33.333 17.083C34.0163 17.083 34.583 17.6497 34.583 18.333V29.9997C34.583 30.683 34.0163 31.2497 33.333 31.2497Z" fill="#DB7F28"/>
<path id="Vector_8" d="M38.3337 37.917H1.66699C0.983659 37.917 0.416992 37.3503 0.416992 36.667C0.416992 35.9837 0.983659 35.417 1.66699 35.417H38.3337C39.017 35.417 39.5837 35.9837 39.5837 36.667C39.5837 37.3503 39.017 37.917 38.3337 37.917Z" fill="#DB7F28"/>
<path id="Vector_9" d="M20 15.417C17.9333 15.417 16.25 13.7337 16.25 11.667C16.25 9.60033 17.9333 7.91699 20 7.91699C22.0667 7.91699 23.75 9.60033 23.75 11.667C23.75 13.7337 22.0667 15.417 20 15.417ZM20 10.417C19.3167 10.417 18.75 10.9837 18.75 11.667C18.75 12.3503 19.3167 12.917 20 12.917C20.6833 12.917 21.25 12.3503 21.25 11.667C21.25 10.9837 20.6833 10.417 20 10.417Z" fill="#DB7F28"/>
</g>
</g>
</svg>
