<svg width="60" height="58" viewBox="0 0 60 58" fill="none" xmlns="http://www.w3.org/2000/svg">
<g id="vuesax/outline/wallet-minus">
<g id="wallet-minus">
<path id="Vector" d="M36.25 40.1299H23.75C22.725 40.1299 21.875 39.3153 21.875 38.333C21.875 37.3507 22.725 36.5361 23.75 36.5361H36.25C37.275 36.5361 38.125 37.3507 38.125 38.333C38.125 39.3153 37.275 40.1299 36.25 40.1299Z" fill="#DB7F28"/>
<path id="Vector_2" d="M13.0002 25.0604C12.5252 25.0604 12.0502 24.8688 11.6752 24.5334C11.1502 24.0302 10.9752 23.2396 11.2752 22.5688L15.9252 11.9313C16.0252 11.7157 16.0752 11.5719 16.1502 11.4521C19.8502 3.28232 24.5752 1.29378 32.9252 4.36045C33.4002 4.52816 33.7752 4.88753 33.9752 5.34274C34.1752 5.79795 34.1752 6.30107 33.9752 6.75628L26.6502 23.0479C26.3502 23.6948 25.6752 24.1261 24.9252 24.1261H17.8002C16.3752 24.1261 15.0252 24.3896 13.7252 24.9167C13.5002 25.0125 13.2502 25.0604 13.0002 25.0604ZM26.5252 6.58857C23.4252 6.58857 21.5252 8.5292 19.5502 12.9375C19.5252 13.0094 19.4752 13.0813 19.4502 13.1532L16.1752 20.6042C16.7252 20.5563 17.2502 20.5323 17.8002 20.5323H23.6752L29.7002 7.11566C28.5252 6.75628 27.4752 6.58857 26.5252 6.58857Z" fill="#DB7F28"/>
<path id="Vector_3" d="M45.7246 24.6053C45.5496 24.6053 45.3496 24.5813 45.1746 24.5334C44.2496 24.2698 43.2246 24.1261 42.1746 24.1261H24.9246C24.2996 24.1261 23.6996 23.8146 23.3496 23.3115C23.0246 22.8084 22.9496 22.1615 23.1996 21.6105L30.4496 5.48651C30.8246 4.62401 31.8996 4.04901 32.8496 4.33651C33.1496 4.43234 33.4246 4.55213 33.7246 4.67192L39.6246 7.0438C43.0746 8.40942 45.3746 9.84692 46.8746 11.5719C47.1746 11.9073 47.4246 12.2667 47.6496 12.6261C47.9246 13.0334 48.1746 13.5365 48.3496 14.0396C48.4246 14.2073 48.5496 14.5188 48.6246 14.8542C49.3246 17.1063 48.9746 19.9094 47.4746 23.5032C47.1746 24.174 46.4746 24.6053 45.7246 24.6053ZM27.7746 20.5323H42.1996C42.9996 20.5323 43.7746 20.6042 44.5496 20.724C45.2496 18.6396 45.3996 17.0344 44.9996 15.7407C44.9496 15.525 44.8996 15.4292 44.8746 15.3334C44.7246 14.95 44.6246 14.7344 44.4996 14.5428C44.3246 14.2792 44.1996 14.0636 43.9996 13.848C42.9246 12.6021 41.0246 11.4521 38.1996 10.35L33.2496 8.36151L27.7746 20.5323Z" fill="#DB7F28"/>
<path id="Vector_4" d="M39.75 54.5051H20.25C19.55 54.5051 18.9 54.4572 18.25 54.3854C9.475 53.8104 4.475 49.0187 3.875 40.5135C3.8 39.9864 3.75 39.3395 3.75 38.6926V34.0208C3.75 28.6301 7.1 23.7666 12.275 21.6104C14.025 20.8916 15.9 20.5322 17.825 20.5322H42.225C43.65 20.5322 45.025 20.7239 46.3 21.1072C52.175 22.8083 56.3 28.127 56.3 34.0208V38.6926C56.3 39.2197 56.275 39.7229 56.25 40.202C55.7 49.5697 50 54.5051 39.75 54.5051ZM17.8 24.126C16.375 24.126 15.025 24.3895 13.725 24.9166C9.925 26.4979 7.475 30.0676 7.475 34.0208V38.6926C7.475 39.1958 7.525 39.6989 7.575 40.1781C8.05 47.0062 11.55 50.3603 18.575 50.8156C19.2 50.8874 19.7 50.9354 20.225 50.9354H39.725C47.975 50.9354 52.025 47.4614 52.425 40.0343C52.45 39.6031 52.475 39.1718 52.475 38.6926V34.0208C52.475 29.6843 49.45 25.8031 45.15 24.5333C44.225 24.2697 43.2 24.126 42.15 24.126H17.8Z" fill="#DB7F28"/>
<path id="Vector_5" d="M5.59961 35.8178C4.57461 35.8178 3.72461 35.0033 3.72461 34.021V27.0012C3.72461 19.4543 9.29961 12.9376 16.9996 11.5001C17.6746 11.3803 18.3746 11.6199 18.8246 12.123C19.2496 12.6262 19.3746 13.3449 19.0996 13.9439L14.7246 23.9585C14.5246 24.3897 14.1746 24.7251 13.7496 24.9168C9.94961 26.498 7.49961 30.0678 7.49961 34.021C7.47461 35.0033 6.64961 35.8178 5.59961 35.8178ZM13.9996 16.3397C10.7996 18.0647 8.47461 21.0835 7.74961 24.6053C8.84961 23.5272 10.1246 22.6168 11.5746 21.946L13.9996 16.3397Z" fill="#DB7F28"/>
<path id="Vector_6" d="M54.3999 35.8182C53.3749 35.8182 52.5249 35.0036 52.5249 34.0213C52.5249 29.6848 49.4999 25.8036 45.1999 24.5338C44.6999 24.39 44.2749 24.0546 44.0499 23.5994C43.8249 23.1442 43.7999 22.6171 43.9999 22.1619C45.1749 19.3588 45.4749 17.3223 44.9999 15.7411C44.9499 15.5254 44.8999 15.4296 44.8749 15.3338C44.5499 14.639 44.7249 13.8244 45.2999 13.2973C45.8749 12.7702 46.7499 12.6504 47.4499 13.0098C52.8999 15.7411 56.2749 21.1077 56.2749 27.0015V34.0213C56.2749 35.0036 55.4249 35.8182 54.3999 35.8182ZM48.1249 21.7786C49.6999 22.4734 51.0999 23.4557 52.2749 24.6296C51.7999 22.2817 50.6249 20.1494 48.8999 18.4723C48.7749 19.4786 48.5249 20.5807 48.1249 21.7786Z" fill="#DB7F28"/>
</g>
</g>
</svg>
