<svg width="40" height="40" viewBox="0 0 40 40" fill="none" xmlns="http://www.w3.org/2000/svg">
<g id="vuesax/outline/user-square">
<g id="user-square">
<path id="Vector" d="M25.0001 37.9166H15.0001C12.8001 37.9166 10.9667 37.7 9.41675 37.2333C8.85008 37.0666 8.48341 36.5166 8.51675 35.9332C8.93341 30.9499 13.9834 27.0332 20.0001 27.0332C26.0167 27.0332 31.0501 30.9332 31.4834 35.9332C31.5334 36.5332 31.1667 37.0666 30.5834 37.2333C29.0334 37.7 27.2001 37.9166 25.0001 37.9166ZM11.2001 35.0999C12.3001 35.3166 13.5501 35.4166 15.0001 35.4166H25.0001C26.4501 35.4166 27.7001 35.3166 28.8001 35.0999C27.9167 31.8999 24.2667 29.5332 20.0001 29.5332C15.7334 29.5332 12.0834 31.8999 11.2001 35.0999Z" fill="#DB7F28"/>
<path id="Vector_2" d="M24.9997 3.33301H14.9997C6.66634 3.33301 3.33301 6.66634 3.33301 14.9997V24.9997C3.33301 31.2997 5.23301 34.7497 9.76634 36.033C10.133 31.6997 14.583 28.283 19.9997 28.283C25.4163 28.283 29.8663 31.6997 30.233 36.033C34.7663 34.7497 36.6663 31.2997 36.6663 24.9997V14.9997C36.6663 6.66634 33.333 3.33301 24.9997 3.33301ZM19.9997 23.6163C16.6997 23.6163 14.033 20.933 14.033 17.633C14.033 14.333 16.6997 11.6663 19.9997 11.6663C23.2997 11.6663 25.9663 14.333 25.9663 17.633C25.9663 20.933 23.2997 23.6163 19.9997 23.6163Z" stroke="#DB7F28" stroke-width="1.5" stroke-linecap="round" stroke-linejoin="round"/>
<path id="Vector_3" d="M19.9999 24.867C16.0165 24.867 12.7832 21.617 12.7832 17.6337C12.7832 13.6504 16.0165 10.417 19.9999 10.417C23.9832 10.417 27.2165 13.6504 27.2165 17.6337C27.2165 21.617 23.9832 24.867 19.9999 24.867ZM19.9999 12.917C17.3999 12.917 15.2832 15.0337 15.2832 17.6337C15.2832 20.2504 17.3999 22.367 19.9999 22.367C22.5999 22.367 24.7165 20.2504 24.7165 17.6337C24.7165 15.0337 22.5999 12.917 19.9999 12.917Z" fill="#DB7F28"/>
</g>
</g>
</svg>
