<svg width="40" height="40" viewBox="0 0 40 40" fill="none" xmlns="http://www.w3.org/2000/svg">
<g id="vuesax/outline/task-square">
<g id="task-square">
<path id="Vector" d="M29.3672 16.0332H20.6172C19.9339 16.0332 19.3672 15.4665 19.3672 14.7832C19.3672 14.0999 19.9339 13.5332 20.6172 13.5332H29.3672C30.0505 13.5332 30.6172 14.0999 30.6172 14.7832C30.6172 15.4665 30.0672 16.0332 29.3672 16.0332Z" fill="#DB7F28"/>
<path id="Vector_2" d="M11.863 17.3005C11.5464 17.3005 11.2297 17.1839 10.9797 16.9339L9.72969 15.6839C9.24635 15.2005 9.24635 14.4005 9.72969 13.9172C10.213 13.4339 11.013 13.4339 11.4964 13.9172L11.863 14.2839L14.7297 11.4172C15.213 10.9339 16.013 10.9339 16.4964 11.4172C16.9797 11.9005 16.9797 12.7005 16.4964 13.1839L12.7464 16.9339C12.513 17.1672 12.1964 17.3005 11.863 17.3005Z" fill="#DB7F28"/>
<path id="Vector_3" d="M29.3672 27.7002H20.6172C19.9339 27.7002 19.3672 27.1335 19.3672 26.4502C19.3672 25.7669 19.9339 25.2002 20.6172 25.2002H29.3672C30.0505 25.2002 30.6172 25.7669 30.6172 26.4502C30.6172 27.1335 30.0672 27.7002 29.3672 27.7002Z" fill="#DB7F28"/>
<path id="Vector_4" d="M11.863 28.9665C11.5464 28.9665 11.2297 28.8499 10.9797 28.5999L9.72969 27.3499C9.24635 26.8665 9.24635 26.0665 9.72969 25.5832C10.213 25.0999 11.013 25.0999 11.4964 25.5832L11.863 25.9499L14.7297 23.0832C15.213 22.5999 16.013 22.5999 16.4964 23.0832C16.9797 23.5665 16.9797 24.3665 16.4964 24.8499L12.7464 28.5999C12.513 28.8332 12.1964 28.9665 11.863 28.9665Z" fill="#DB7F28"/>
<path id="Vector_5" d="M24.9987 37.9173H14.9987C5.9487 37.9173 2.08203 34.0506 2.08203 25.0007V15.0007C2.08203 5.95065 5.9487 2.08398 14.9987 2.08398H24.9987C34.0487 2.08398 37.9154 5.95065 37.9154 15.0007V25.0007C37.9154 34.0506 34.0487 37.9173 24.9987 37.9173ZM14.9987 4.58398C7.31536 4.58398 4.58203 7.31732 4.58203 15.0007V25.0007C4.58203 32.684 7.31536 35.4173 14.9987 35.4173H24.9987C32.682 35.4173 35.4154 32.684 35.4154 25.0007V15.0007C35.4154 7.31732 32.682 4.58398 24.9987 4.58398H14.9987Z" fill="#DB7F28"/>
</g>
</g>
</svg>
