<svg width="40" height="40" viewBox="0 0 40 40" fill="none" xmlns="http://www.w3.org/2000/svg">
<g id="vuesax/outline/personalcard">
<g id="personalcard">
<path id="Vector" d="M28.332 36.25H11.6654C4.31536 36.25 2.08203 34.0167 2.08203 26.6667V13.3333C2.08203 5.98333 4.31536 3.75 11.6654 3.75H28.332C35.682 3.75 37.9154 5.98333 37.9154 13.3333V26.6667C37.9154 34.0167 35.682 36.25 28.332 36.25ZM11.6654 6.25C5.6987 6.25 4.58203 7.38333 4.58203 13.3333V26.6667C4.58203 32.6167 5.6987 33.75 11.6654 33.75H28.332C34.2987 33.75 35.4154 32.6167 35.4154 26.6667V13.3333C35.4154 7.38333 34.2987 6.25 28.332 6.25H11.6654Z" fill="#DB7F28"/>
<path id="Vector_2" d="M31.6654 14.584H23.332C22.6487 14.584 22.082 14.0173 22.082 13.334C22.082 12.6507 22.6487 12.084 23.332 12.084H31.6654C32.3487 12.084 32.9154 12.6507 32.9154 13.334C32.9154 14.0173 32.3487 14.584 31.6654 14.584Z" fill="#DB7F28"/>
<path id="Vector_3" d="M31.6667 21.25H25C24.3167 21.25 23.75 20.6833 23.75 20C23.75 19.3167 24.3167 18.75 25 18.75H31.6667C32.35 18.75 32.9167 19.3167 32.9167 20C32.9167 20.6833 32.35 21.25 31.6667 21.25Z" fill="#DB7F28"/>
<path id="Vector_4" d="M31.6654 27.916H28.332C27.6487 27.916 27.082 27.3493 27.082 26.666C27.082 25.9827 27.6487 25.416 28.332 25.416H31.6654C32.3487 25.416 32.9154 25.9827 32.9154 26.666C32.9154 27.3493 32.3487 27.916 31.6654 27.916Z" fill="#DB7F28"/>
<path id="Vector_5" d="M14.169 20.0665C11.819 20.0665 9.90234 18.1499 9.90234 15.7999C9.90234 13.4499 11.819 11.5332 14.169 11.5332C16.519 11.5332 18.4357 13.4499 18.4357 15.7999C18.4357 18.1499 16.519 20.0665 14.169 20.0665ZM14.169 14.0332C13.2023 14.0332 12.4023 14.8332 12.4023 15.7999C12.4023 16.7665 13.2023 17.5665 14.169 17.5665C15.1357 17.5665 15.9357 16.7665 15.9357 15.7999C15.9357 14.8332 15.1357 14.0332 14.169 14.0332Z" fill="#DB7F28"/>
<path id="Vector_6" d="M20.0018 28.4669C19.3685 28.4669 18.8185 27.9836 18.7518 27.3336C18.5685 25.5336 17.1185 24.0836 15.3018 23.9169C14.5351 23.8503 13.7685 23.8503 13.0018 23.9169C11.1851 24.0836 9.73513 25.5169 9.5518 27.3336C9.48513 28.0169 8.86846 28.5336 8.18513 28.4503C7.5018 28.3836 7.0018 27.7669 7.06846 27.0836C7.36846 24.0836 9.7518 21.7003 12.7685 21.4336C13.6851 21.3503 14.6185 21.3503 15.5351 21.4336C18.5351 21.7169 20.9351 24.1003 21.2351 27.0836C21.3018 27.7669 20.8018 28.3836 20.1185 28.4503C20.0851 28.4669 20.0351 28.4669 20.0018 28.4669Z" fill="#DB7F28"/>
</g>
</g>
</svg>
