<svg width="40" height="40" viewBox="0 0 40 40" fill="none" xmlns="http://www.w3.org/2000/svg">
<g id="vuesax/outline/money-send">
<g id="money-send">
<path id="Vector" d="M21.7497 27.0837H18.6164C16.3997 27.0837 14.583 25.217 14.583 22.917C14.583 22.2337 15.1497 21.667 15.833 21.667C16.5163 21.667 17.083 22.2337 17.083 22.917C17.083 23.8337 17.7664 24.5837 18.6164 24.5837H21.7497C22.3997 24.5837 22.9163 24.0004 22.9163 23.2837C22.9163 22.3837 22.6664 22.2504 22.0997 22.0504L17.083 20.3004C16.0163 19.917 14.583 19.1504 14.583 16.7004C14.583 14.6171 16.233 12.9004 18.2497 12.9004H21.383C23.5997 12.9004 25.4163 14.7671 25.4163 17.0671C25.4163 17.7504 24.8497 18.3171 24.1663 18.3171C23.483 18.3171 22.9163 17.7504 22.9163 17.0671C22.9163 16.1504 22.233 15.4004 21.383 15.4004H18.2497C17.5997 15.4004 17.083 15.9837 17.083 16.7004C17.083 17.6004 17.333 17.7337 17.8997 17.9337L22.9163 19.6837C23.983 20.067 25.4163 20.8337 25.4163 23.2837C25.4163 25.3837 23.7663 27.0837 21.7497 27.0837Z" fill="#DB7F28"/>
<path id="Vector_2" d="M20 28.75C19.3167 28.75 18.75 28.1833 18.75 27.5V12.5C18.75 11.8167 19.3167 11.25 20 11.25C20.6833 11.25 21.25 11.8167 21.25 12.5V27.5C21.25 28.1833 20.6833 28.75 20 28.75Z" fill="#DB7F28"/>
<path id="Vector_3" d="M19.9997 37.9163C10.1163 37.9163 2.08301 29.883 2.08301 19.9997C2.08301 10.1163 10.1163 2.08301 19.9997 2.08301C20.683 2.08301 21.2497 2.64967 21.2497 3.33301C21.2497 4.01634 20.683 4.58301 19.9997 4.58301C11.4997 4.58301 4.58301 11.4997 4.58301 19.9997C4.58301 28.4997 11.4997 35.4163 19.9997 35.4163C28.4997 35.4163 35.4163 28.4997 35.4163 19.9997C35.4163 19.3163 35.983 18.7497 36.6663 18.7497C37.3497 18.7497 37.9163 19.3163 37.9163 19.9997C37.9163 29.883 29.883 37.9163 19.9997 37.9163Z" fill="#DB7F28"/>
<path id="Vector_4" d="M36.6667 11.2497C35.9833 11.2497 35.4167 10.683 35.4167 9.99967V4.58301H30C29.3167 4.58301 28.75 4.01634 28.75 3.33301C28.75 2.64967 29.3167 2.08301 30 2.08301H36.6667C37.35 2.08301 37.9167 2.64967 37.9167 3.33301V9.99967C37.9167 10.683 37.35 11.2497 36.6667 11.2497Z" fill="#DB7F28"/>
<path id="Vector_5" d="M28.3337 12.9171C28.0171 12.9171 27.7004 12.8004 27.4504 12.5504C26.9671 12.0671 26.9671 11.2671 27.4504 10.7837L35.7837 2.45039C36.2671 1.96706 37.0671 1.96706 37.5504 2.45039C38.0337 2.93372 38.0337 3.73372 37.5504 4.21705L29.2171 12.5504C28.9671 12.8004 28.6504 12.9171 28.3337 12.9171Z" fill="#DB7F28"/>
</g>
</g>
</svg>
