<svg width="20" height="20" viewBox="0 0 20 20" fill="none" xmlns="http://www.w3.org/2000/svg">
<g id="vuesax/bold/eye-slash">
<path id="Vector" d="M17.725 7.64998C17.4834 7.26665 17.225 6.90831 16.9584 6.57498C16.65 6.18331 16.0667 6.14998 15.7167 6.49998L13.2167 8.99998C13.4 9.54998 13.4334 10.1833 13.2667 10.8416C12.975 12.0166 12.025 12.9666 10.85 13.2583C10.1917 13.425 9.55837 13.3916 9.00837 13.2083C9.00837 13.2083 7.81671 14.4 6.95837 15.2583C6.54171 15.675 6.67504 16.4083 7.23337 16.625C8.12504 16.9666 9.05004 17.1416 10 17.1416C11.4834 17.1416 12.925 16.7083 14.2417 15.9C15.5834 15.0666 16.7917 13.8416 17.7667 12.2833C18.5584 11.025 18.5167 8.90831 17.725 7.64998Z" fill="#295E56" fill-opacity="0.5"/>
<path id="Vector_2" d="M11.6834 8.31664L8.3167 11.6833C7.8917 11.25 7.6167 10.65 7.6167 9.99997C7.6167 8.69164 8.68337 7.61664 10 7.61664C10.65 7.61664 11.25 7.89164 11.6834 8.31664Z" fill="#295E56" fill-opacity="0.5"/>
<path id="Vector_3" d="M15.2083 4.79167L12.3833 7.61667C11.775 7 10.9333 6.63334 9.99996 6.63334C8.13329 6.63334 6.63329 8.14167 6.63329 10C6.63329 10.9333 7.00829 11.775 7.61663 12.3833L4.79996 15.2083H4.79163C3.86663 14.4583 3.01663 13.5 2.29163 12.3667C1.45829 11.0583 1.45829 8.93334 2.29163 7.625C3.25829 6.10834 4.44163 4.91667 5.75829 4.1C7.07496 3.3 8.51663 2.85834 9.99996 2.85834C11.8583 2.85834 13.6583 3.54167 15.2083 4.79167Z" fill="#295E56" fill-opacity="0.5"/>
<path id="Vector_4" d="M12.3833 10C12.3833 11.3083 11.3166 12.3833 9.99994 12.3833C9.94994 12.3833 9.90828 12.3833 9.85828 12.3667L12.3666 9.85834C12.3833 9.90834 12.3833 9.95 12.3833 10Z" fill="#295E56" fill-opacity="0.5"/>
<path id="Vector_5" d="M18.1416 1.85834C17.8916 1.60834 17.4833 1.60834 17.2333 1.85834L1.85828 17.2417C1.60828 17.4917 1.60828 17.9 1.85828 18.15C1.98328 18.2667 2.14161 18.3333 2.30828 18.3333C2.47494 18.3333 2.63328 18.2667 2.75828 18.1417L18.1416 2.75834C18.3999 2.50834 18.3999 2.10834 18.1416 1.85834Z" fill="#295E56" fill-opacity="0.5"/>
</g>
</svg>
