<svg width="146" height="45" viewBox="0 0 146 45" fill="none" xmlns="http://www.w3.org/2000/svg">
<rect width="146" height="45" rx="5" fill="white"/>
<path fill-rule="evenodd" clip-rule="evenodd" d="M72.9974 8.66699C72.1907 8.66699 71.4481 8.86699 70.6361 9.20299C69.8507 9.52833 68.9387 10.007 67.8041 10.603L65.0467 12.0497C63.6534 12.7803 62.5401 13.3657 61.6774 13.9403C60.7867 14.5363 60.0987 15.163 59.5987 16.0123C59.1001 16.859 58.8761 17.7763 58.7681 18.8683C58.6641 19.9283 58.6641 21.231 58.6641 22.871V23.1297C58.6641 24.7697 58.6641 26.0723 58.7681 27.1323C58.8761 28.2257 59.1014 29.1417 59.5987 29.9883C60.0987 30.8377 60.7854 31.4643 61.6787 32.0603C62.5387 32.635 63.6534 33.2203 65.0467 33.951L67.8041 35.3977C68.9387 35.9937 69.8507 36.4723 70.6361 36.7977C71.4494 37.1337 72.1907 37.3337 72.9974 37.3337C73.8041 37.3337 74.5467 37.1337 75.3587 36.7977C76.1441 36.4723 77.0561 35.9937 78.1907 35.3977L80.9481 33.9523C82.3414 33.2203 83.4547 32.635 84.3161 32.0603C85.2094 31.4643 85.8961 30.8377 86.3961 29.9883C86.8947 29.1417 87.1187 28.2243 87.2267 27.1323C87.3307 26.0723 87.3307 24.7697 87.3307 23.131V22.8697C87.3307 21.231 87.3307 19.9283 87.2267 18.8683C87.1187 17.775 86.8934 16.859 86.3961 16.0123C85.8961 15.163 85.2094 14.5363 84.3161 13.9403C83.4561 13.3657 82.3414 12.7803 80.9481 12.0497L78.1907 10.603C77.0561 10.007 76.1441 9.52833 75.3587 9.20299C74.5454 8.86699 73.8041 8.66699 72.9974 8.66699ZM68.6907 12.395C69.8774 11.7723 70.7094 11.3377 71.4001 11.0523C72.0721 10.7737 72.5454 10.667 72.9974 10.667C73.4507 10.667 73.9227 10.7737 74.5947 11.0523C75.2854 11.3377 76.1161 11.7723 77.3027 12.395L79.9694 13.795C81.4227 14.5563 82.4427 15.0937 83.2067 15.603C83.5827 15.855 83.8774 16.0883 84.1174 16.323L79.6761 18.543L68.3427 12.5777L68.6907 12.395ZM66.2587 13.6723L66.0267 13.795C64.5734 14.5563 63.5534 15.0937 62.7907 15.603C62.4653 15.814 62.1604 16.055 61.8801 16.323L72.9974 21.883L77.4734 19.643L66.5321 13.8857C66.4287 13.8312 66.3371 13.759 66.2587 13.6723ZM60.9147 18.0763C60.8481 18.3617 60.7961 18.6857 60.7587 19.063C60.6654 20.015 60.6641 21.219 60.6641 22.9217V23.0777C60.6641 24.7817 60.6641 25.9857 60.7587 26.9363C60.8507 27.8657 61.0254 28.467 61.3227 28.9737C61.6187 29.4763 62.0467 29.9017 62.7894 30.3977C63.5521 30.907 64.5721 31.4443 66.0254 32.2057L68.6921 33.6057C69.8787 34.2283 70.7094 34.663 71.4001 34.9483C71.6187 35.039 71.8147 35.111 71.9974 35.1683V23.6177L60.9147 18.0763ZM73.9974 35.167C74.1801 35.111 74.3761 35.039 74.5947 34.9483C75.2854 34.663 76.1161 34.2283 77.3027 33.6057L79.9694 32.2057C81.4227 31.443 82.4427 30.907 83.2067 30.3977C83.9481 29.9017 84.3761 29.4763 84.6734 28.9737C84.9707 28.467 85.1441 27.867 85.2361 26.9363C85.3294 25.9857 85.3307 24.7817 85.3307 23.079V22.923C85.3307 21.219 85.3307 20.015 85.2361 19.0643C85.206 18.7323 85.1539 18.4027 85.0801 18.0777L80.6641 20.2843V24.3337C80.6641 24.5989 80.5587 24.8532 80.3712 25.0408C80.1836 25.2283 79.9293 25.3337 79.6641 25.3337C79.3988 25.3337 79.1445 25.2283 78.957 25.0408C78.7694 24.8532 78.6641 24.5989 78.6641 24.3337V21.2857L73.9974 23.619V35.167Z" fill="#DB7F28"/>
</svg>
