<svg width="40" height="40" viewBox="0 0 40 40" fill="none" xmlns="http://www.w3.org/2000/svg">
<g id="vuesax/outline/security-card">
<g id="security-card">
<path id="Vector" d="M17.5996 37.8502C15.7996 37.8502 13.983 37.3335 12.583 36.2835L5.44963 30.9502C3.56629 29.5502 2.09961 26.6002 2.09961 24.2335V11.8835C2.09961 9.33354 3.9663 6.61685 6.3663 5.71685L14.6663 2.6002C16.3163 1.98353 18.8996 1.98353 20.5496 2.6002L28.833 5.71685C30.783 6.45019 32.4329 8.40019 32.9663 10.5669C33.0496 10.9335 32.9663 11.3336 32.733 11.6336C32.4996 11.9336 32.133 12.1168 31.7496 12.1168L18.5663 12.1335C16.4496 12.2669 15.9329 12.6169 15.9329 15.7002V24.7502C15.9329 27.9335 16.3496 28.3335 19.583 28.3335H29.4496C29.9663 28.3335 30.4329 28.6502 30.6163 29.1336C30.7996 29.6169 30.6663 30.1669 30.2829 30.5169C30.0996 30.6669 29.9496 30.8169 29.7663 30.9502L22.633 36.3002C21.1996 37.3335 19.3996 37.8502 17.5996 37.8502ZM17.5996 4.65021C16.8496 4.65021 16.083 4.75022 15.533 4.96688L7.23295 8.08354C5.83295 8.61688 4.58295 10.4002 4.58295 11.9169V24.2669C4.58295 25.8335 5.68296 28.0335 6.93296 28.9669L14.0663 34.3002C15.983 35.7168 19.1996 35.7168 21.1163 34.3002L25.733 30.8502H19.5663C14.9663 30.8502 13.4163 29.3168 13.4163 24.7668V15.7169C13.4163 12.1669 14.2663 9.91688 18.4829 9.65021L19.5663 9.63353H29.8163C29.3163 8.91686 28.6496 8.35021 27.9496 8.08354L19.6663 4.96688C19.0996 4.75022 18.3496 4.65021 17.5996 4.65021Z" fill="#DB7F28"/>
<path id="Vector_2" d="M36.666 19.9502H14.666C13.9827 19.9502 13.416 19.3835 13.416 18.7002C13.416 18.0169 13.9827 17.4502 14.666 17.4502H36.666C37.3493 17.4502 37.916 18.0169 37.916 18.7002C37.916 19.3835 37.3493 19.9502 36.666 19.9502Z" fill="#DB7F28"/>
<path id="Vector_3" d="M31.766 30.8329H19.566C14.966 30.8329 13.416 29.2996 13.416 24.7496V15.6996C13.416 12.1496 14.266 9.89956 18.4827 9.63289L19.566 9.61621H31.766C36.366 9.61621 37.916 11.1496 37.916 15.6996V24.9496C37.8827 29.3496 36.3327 30.8329 31.766 30.8329ZM19.566 12.1162L18.5494 12.1329C16.4327 12.2662 15.916 12.6163 15.916 15.6996V24.7496C15.916 27.9329 16.3327 28.3329 19.566 28.3329H31.766C34.9493 28.3329 35.3827 27.9162 35.416 24.9496V15.7162C35.416 12.5329 34.9993 12.1329 31.766 12.1329H19.566V12.1162Z" fill="#DB7F28"/>
<path id="Vector_4" d="M21.0829 26.6836H18.8496C18.1663 26.6836 17.5996 26.1169 17.5996 25.4336C17.5996 24.7503 18.1663 24.1836 18.8496 24.1836H21.0829C21.7663 24.1836 22.3329 24.7503 22.3329 25.4336C22.3329 26.1169 21.7829 26.6836 21.0829 26.6836Z" fill="#DB7F28"/>
<path id="Vector_5" d="M30.033 26.6836H24.583C23.8997 26.6836 23.333 26.1169 23.333 25.4336C23.333 24.7503 23.8997 24.1836 24.583 24.1836H30.033C30.7163 24.1836 31.283 24.7503 31.283 25.4336C31.283 26.1169 30.733 26.6836 30.033 26.6836Z" fill="#DB7F28"/>
</g>
</g>
</svg>
