<svg width="40" height="40" viewBox="0 0 40 40" fill="none" xmlns="http://www.w3.org/2000/svg">
<g id="vuesax/outline/note">
<g id="note">
<path id="Vector" d="M26.667 37.9163H13.3337C8.30033 37.9163 5.41699 35.033 5.41699 29.9997V13.7497C5.41699 8.49967 8.08366 5.83301 13.3337 5.83301C14.017 5.83301 14.5837 6.39967 14.5837 7.08301C14.5837 7.74967 14.8503 8.383 15.317 8.84967C15.7837 9.31634 16.417 9.58301 17.0837 9.58301H22.917C24.3003 9.58301 25.417 8.46634 25.417 7.08301C25.417 6.39967 25.9837 5.83301 26.667 5.83301C31.917 5.83301 34.5837 8.49967 34.5837 13.7497V29.9997C34.5837 35.033 31.7003 37.9163 26.667 37.9163ZM12.2503 8.36635C9.61695 8.58301 7.91699 9.76634 7.91699 13.7497V29.9997C7.91699 33.6997 9.63366 35.4163 13.3337 35.4163H26.667C30.367 35.4163 32.0837 33.6997 32.0837 29.9997V13.7497C32.0837 9.76634 30.3837 8.59968 27.7504 8.36635C27.1837 10.4997 25.2337 12.083 22.917 12.083H17.0837C15.7503 12.083 14.5003 11.5663 13.5503 10.6163C12.917 9.983 12.4836 9.21635 12.2503 8.36635Z" fill="#DB7F28"/>
<path id="Vector_2" d="M22.9163 12.083H17.083C15.7497 12.083 14.4997 11.5663 13.5497 10.6163C12.5997 9.66633 12.083 8.41634 12.083 7.08301C12.083 4.33301 14.333 2.08301 17.083 2.08301H22.9163C24.2497 2.08301 25.4997 2.59968 26.4497 3.54968C27.3997 4.49968 27.9163 5.74967 27.9163 7.08301C27.9163 9.83301 25.6663 12.083 22.9163 12.083ZM17.083 4.58301C15.6997 4.58301 14.583 5.69967 14.583 7.08301C14.583 7.74967 14.8497 8.383 15.3163 8.84967C15.783 9.31634 16.4163 9.58301 17.083 9.58301H22.9163C24.2997 9.58301 25.4163 8.46634 25.4163 7.08301C25.4163 6.41634 25.1497 5.78301 24.683 5.31635C24.2163 4.84968 23.583 4.58301 22.9163 4.58301H17.083Z" fill="#DB7F28"/>
<path id="Vector_3" d="M19.9997 22.917H13.333C12.6497 22.917 12.083 22.3503 12.083 21.667C12.083 20.9837 12.6497 20.417 13.333 20.417H19.9997C20.683 20.417 21.2497 20.9837 21.2497 21.667C21.2497 22.3503 20.683 22.917 19.9997 22.917Z" fill="#DB7F28"/>
<path id="Vector_4" d="M26.6663 29.583H13.333C12.6497 29.583 12.083 29.0163 12.083 28.333C12.083 27.6497 12.6497 27.083 13.333 27.083H26.6663C27.3497 27.083 27.9163 27.6497 27.9163 28.333C27.9163 29.0163 27.3497 29.583 26.6663 29.583Z" fill="#DB7F28"/>
</g>
</g>
</svg>
