<svg width="40" height="40" viewBox="0 0 40 40" fill="none" xmlns="http://www.w3.org/2000/svg">
<g id="vuesax/outline/graph">
<g id="graph">
<path id="Vector" d="M30.5333 21.2498H25C20.85 21.2498 18.75 18.8998 18.75 14.2498V9.46644C18.75 7.76644 18.95 5.33311 20.7167 3.99977C22.2 2.89977 24.3333 2.81644 27.4833 3.7331C31.6167 4.9331 35.0667 8.3831 36.2667 12.5164C37.1833 15.6498 37.1 17.7998 36 19.2664C34.6667 21.0498 32.2333 21.2498 30.5333 21.2498ZM23.8 5.59977C23.1167 5.59977 22.5833 5.7331 22.2333 5.99977C21.5833 6.4831 21.2667 7.61644 21.2667 9.46644V14.2664C21.2667 17.9998 22.7 18.7664 25.0167 18.7664H30.55C32.3833 18.7664 33.5167 18.4498 34.0167 17.7998C34.6 17.0331 34.55 15.4998 33.9 13.2498C32.9333 9.96644 30.1 7.11644 26.8167 6.16644C25.5833 5.7831 24.5833 5.59977 23.8 5.59977Z" fill="#DB7F28"/>
<path id="Vector_2" d="M18.4493 37.9165C17.566 37.9165 16.666 37.8499 15.766 37.6999C8.94932 36.5999 3.39932 31.0665 2.29932 24.2499C0.882649 15.4832 6.53265 7.21655 15.1826 5.44988C15.866 5.31655 16.516 5.74988 16.666 6.41655C16.7993 7.09988 16.366 7.74988 15.6993 7.89988C8.38265 9.39988 3.58265 16.3999 4.79932 23.8499C5.73265 29.6166 10.416 34.2999 16.1826 35.2332C23.666 36.4332 30.6493 31.6166 32.1326 24.2666C32.266 23.5832 32.9326 23.1499 33.5993 23.2832C34.2826 23.4165 34.716 24.0832 34.5826 24.7499C32.9993 32.5332 26.1993 37.9165 18.4493 37.9165Z" fill="#DB7F28"/>
</g>
</g>
</svg>
