<svg width="40" height="40" viewBox="0 0 40 40" fill="none" xmlns="http://www.w3.org/2000/svg">
<g id="vuesax/outline/convert-card">
<g id="convert-card">
<path id="Vector" d="M36.6667 10.5166H20C19.3167 10.5166 18.75 9.94993 18.75 9.2666C18.75 8.58327 19.3167 8.0166 20 8.0166H36.6667C37.35 8.0166 37.9167 8.58327 37.9167 9.2666C37.9167 9.9666 37.35 10.5166 36.6667 10.5166Z" fill="#DB7F28"/>
<path id="Vector_2" d="M32.9666 18.7497H23.7166C20.0666 18.7497 18.7666 17.4663 18.7666 13.833V6.99968C18.7666 3.36634 20.0666 2.08301 23.7166 2.08301H32.9666C36.6166 2.08301 37.9166 3.36634 37.9166 6.99968V13.8497C37.9166 17.4663 36.6166 18.7497 32.9666 18.7497ZM23.6999 4.58301C21.4333 4.58301 21.2499 4.76634 21.2499 6.99968V13.8497C21.2499 16.083 21.4333 16.2663 23.6999 16.2663H32.9499C35.2166 16.2663 35.3999 16.083 35.3999 13.8497V6.99968C35.3999 4.76634 35.2166 4.58301 32.9499 4.58301H23.6999Z" fill="#DB7F28"/>
<path id="Vector_3" d="M19.9997 29.6836H3.33301C2.64967 29.6836 2.08301 29.1169 2.08301 28.4336C2.08301 27.7503 2.64967 27.1836 3.33301 27.1836H19.9997C20.683 27.1836 21.2497 27.7503 21.2497 28.4336C21.2497 29.1336 20.683 29.6836 19.9997 29.6836Z" fill="#DB7F28"/>
<path id="Vector_4" d="M16.2996 37.9167H7.04961C3.39961 37.9167 2.09961 36.6333 2.09961 33V26.1667C2.09961 22.5333 3.39961 21.25 7.04961 21.25H16.2996C19.9496 21.25 21.2496 22.5333 21.2496 26.1667V33.0167C21.2496 36.6333 19.9496 37.9167 16.2996 37.9167ZM7.03293 23.75C4.76626 23.75 4.58293 23.9333 4.58293 26.1667V33.0167C4.58293 35.25 4.76626 35.4333 7.03293 35.4333H16.2829C18.5496 35.4333 18.7329 35.25 18.7329 33.0167V26.1667C18.7329 23.9333 18.5496 23.75 16.2829 23.75H7.03293Z" fill="#DB7F28"/>
<path id="Vector_5" d="M25.0007 37.9167C24.5507 37.9167 24.134 37.6667 23.9173 37.2834C23.7007 36.8834 23.7006 36.4167 23.934 36.0167L25.684 33.1001C26.034 32.5167 26.8007 32.3167 27.4007 32.6667C28.0007 33.0167 28.184 33.7834 27.834 34.3834L27.384 35.1334C31.984 34.0501 35.434 29.9167 35.434 24.9834C35.434 24.3001 36.0007 23.7334 36.684 23.7334C37.3673 23.7334 37.934 24.3001 37.934 24.9834C37.9173 32.1167 32.1173 37.9167 25.0007 37.9167Z" fill="#DB7F28"/>
<path id="Vector_6" d="M3.33301 16.2497C2.64967 16.2497 2.08301 15.683 2.08301 14.9997C2.08301 7.88301 7.88301 2.08301 14.9997 2.08301C15.4497 2.08301 15.8663 2.33301 16.083 2.71634C16.2997 3.11634 16.2997 3.58301 16.0664 3.98301L14.3163 6.89967C13.9663 7.48301 13.1997 7.68301 12.5997 7.33301C11.9997 6.98301 11.8163 6.21634 12.1663 5.61634L12.6164 4.86634C8.01635 5.94967 4.56632 10.083 4.56632 15.0163C4.58299 15.683 4.01634 16.2497 3.33301 16.2497Z" fill="#DB7F28"/>
</g>
</g>
</svg>
