<svg width="40" height="40" viewBox="0 0 40 40" fill="none" xmlns="http://www.w3.org/2000/svg">
<g id="vuesax/outline/people">
<g id="people">
<path id="Vector" d="M29.9999 13.183C29.9499 13.183 29.9165 13.183 29.8665 13.183H29.7832C26.6332 13.083 24.2832 10.6496 24.2832 7.64961C24.2832 4.58295 26.7832 2.09961 29.8332 2.09961C32.8832 2.09961 35.3832 4.59961 35.3832 7.64961C35.3665 10.6663 33.0165 13.0996 30.0165 13.1996C30.0165 13.1829 30.0165 13.183 29.9999 13.183ZM29.8332 4.58295C28.1499 4.58295 26.7832 5.94962 26.7832 7.63295C26.7832 9.28295 28.0665 10.6163 29.7165 10.683C29.7332 10.6663 29.8665 10.6663 30.0165 10.683C31.6332 10.5996 32.8832 9.26629 32.8999 7.63295C32.8999 5.94962 31.5332 4.58295 29.8332 4.58295Z" fill="#DB7F28"/>
<path id="Vector_2" d="M30.0165 25.4668C29.3665 25.4668 28.7165 25.4167 28.0665 25.3001C27.3832 25.1834 26.9332 24.5334 27.0498 23.8501C27.1665 23.1667 27.8165 22.7167 28.4998 22.8334C30.5498 23.1834 32.7165 22.8001 34.1665 21.8334C34.9498 21.3168 35.3665 20.6667 35.3665 20.0167C35.3665 19.3667 34.9332 18.7334 34.1665 18.2167C32.7165 17.2501 30.5165 16.8667 28.4498 17.2334C27.7665 17.3667 27.1165 16.9001 26.9998 16.2167C26.8832 15.5334 27.3332 14.8834 28.0165 14.7668C30.7332 14.2834 33.5498 14.8001 35.5498 16.1334C37.0165 17.1167 37.8665 18.5167 37.8665 20.0167C37.8665 21.5001 37.0332 22.9168 35.5498 23.9168C34.0332 24.9168 32.0665 25.4668 30.0165 25.4668Z" fill="#DB7F28"/>
<path id="Vector_3" d="M9.94981 13.183C9.93314 13.183 9.91647 13.183 9.91647 13.183C6.91647 13.083 4.56647 10.6497 4.5498 7.64967C4.5498 4.583 7.04981 2.08301 10.0998 2.08301C13.1498 2.08301 15.6498 4.58301 15.6498 7.63301C15.6498 10.6497 13.2998 13.083 10.2998 13.183L9.94981 11.933L10.0665 13.183C10.0331 13.183 9.98314 13.183 9.94981 13.183ZM10.1165 10.683C10.2165 10.683 10.2998 10.683 10.3998 10.6997C11.8831 10.633 13.1831 9.29967 13.1831 7.64967C13.1831 5.96634 11.8165 4.59967 10.1331 4.59967C8.44981 4.59967 7.08314 5.96634 7.08314 7.64967C7.08314 9.283 8.3498 10.5997 9.96647 10.6997C9.98314 10.683 10.0498 10.683 10.1165 10.683Z" fill="#DB7F28"/>
<path id="Vector_4" d="M9.93301 25.4668C7.88301 25.4668 5.91634 24.9168 4.39967 23.9168C2.93301 22.9334 2.08301 21.5167 2.08301 20.0167C2.08301 18.5334 2.93301 17.1167 4.39967 16.1334C6.39967 14.8001 9.21634 14.2834 11.933 14.7668C12.6163 14.8834 13.0663 15.5334 12.9497 16.2167C12.833 16.9001 12.183 17.3667 11.4997 17.2334C9.43301 16.8667 7.24968 17.2501 5.78301 18.2167C4.99968 18.7334 4.58301 19.3667 4.58301 20.0167C4.58301 20.6667 5.01634 21.3168 5.78301 21.8334C7.23301 22.8001 9.39967 23.1834 11.4497 22.8334C12.133 22.7167 12.783 23.1834 12.8997 23.8501C13.0163 24.5334 12.5663 25.1834 11.883 25.3001C11.233 25.4167 10.583 25.4668 9.93301 25.4668Z" fill="#DB7F28"/>
<path id="Vector_5" d="M19.9999 25.6332C19.9499 25.6332 19.9165 25.6332 19.8665 25.6332H19.7832C16.6332 25.5332 14.2832 23.0998 14.2832 20.0998C14.2832 17.0331 16.7832 14.5498 19.8332 14.5498C22.8832 14.5498 25.3832 17.0498 25.3832 20.0998C25.3665 23.1165 23.0165 25.5498 20.0165 25.6498C20.0165 25.6331 20.0165 25.6332 19.9999 25.6332ZM19.8332 17.0331C18.1499 17.0331 16.7832 18.3998 16.7832 20.0831C16.7832 21.7331 18.0665 23.0665 19.7165 23.1332C19.7332 23.1165 19.8665 23.1165 20.0165 23.1332C21.6332 23.0498 22.8832 21.7165 22.8999 20.0831C22.8999 18.4165 21.5332 17.0331 19.8332 17.0331Z" fill="#DB7F28"/>
<path id="Vector_6" d="M19.9995 37.9332C17.9995 37.9332 15.9995 37.4166 14.4495 36.3666C12.9828 35.3832 12.1328 33.9832 12.1328 32.4832C12.1328 30.9999 12.9661 29.5665 14.4495 28.5832C17.5661 26.5165 22.4495 26.5165 25.5495 28.5832C27.0161 29.5665 27.8661 30.9665 27.8661 32.4665C27.8661 33.9499 27.0328 35.3832 25.5495 36.3666C23.9995 37.3999 21.9995 37.9332 19.9995 37.9332ZM15.8328 30.6832C15.0495 31.1999 14.6328 31.8499 14.6328 32.4999C14.6328 33.1499 15.0661 33.7832 15.8328 34.2999C18.0828 35.8165 21.8995 35.8165 24.1495 34.2999C24.9328 33.7832 25.3495 33.1332 25.3495 32.4832C25.3495 31.8332 24.9161 31.1999 24.1495 30.6832C21.9162 29.1666 18.0995 29.1832 15.8328 30.6832Z" fill="#DB7F28"/>
</g>
</g>
</svg>
