<svg width="70" height="70" viewBox="0 0 70 70" fill="none" xmlns="http://www.w3.org/2000/svg">
<g id="vuesax/outline/shapes">
<g id="shapes">
<path id="Vector" d="M38.8657 46.0482H12.7339C9.49271 46.0482 6.54093 44.3697 4.89141 41.5627C3.24189 38.7556 3.18401 35.3986 4.74672 32.5336L17.7982 8.7748C19.4188 5.82303 22.3995 4.05774 25.7853 4.05774C29.1712 4.05774 32.1519 5.82303 33.7725 8.7748L46.8529 32.5336C48.4156 35.3696 48.3577 38.7556 46.7082 41.5627C45.0586 44.3697 42.1069 46.0482 38.8657 46.0482ZM25.7853 8.42755C24.02 8.42755 22.4573 9.35361 21.6181 10.8874L8.56665 34.6462C7.75636 36.151 7.7853 37.8874 8.62453 39.3633C9.4927 40.8392 11.0265 41.7073 12.7339 41.7073H38.8657C40.5731 41.7073 42.1069 40.8392 42.975 39.3633C43.8432 37.8874 43.8721 36.151 43.0329 34.6462L29.9525 10.8874C29.1133 9.35361 27.5506 8.42755 25.7853 8.42755Z" fill="#295E56"/>
<path id="Vector_2" d="M44.8557 66.3054C33.2802 66.3054 23.875 56.9003 23.875 45.3247C23.875 44.8038 23.9039 44.2829 23.9329 43.762C23.9908 42.6044 24.9457 41.7074 26.1033 41.7074H38.8654C40.5728 41.7074 42.1065 40.8392 42.9747 39.3633C43.8429 37.8874 43.8718 36.1511 43.0326 34.6462L39.3284 27.9035C38.9811 27.2958 38.9811 26.5723 39.2705 25.9356C39.5599 25.2989 40.1387 24.8649 40.8043 24.7202C42.1065 24.4598 43.4667 24.344 44.8557 24.344C56.4313 24.344 65.8364 33.7491 65.8364 45.3247C65.8364 56.9003 56.4313 66.3054 44.8557 66.3054ZM28.2448 46.0482C28.621 54.9035 35.9425 61.9646 44.8557 61.9646C54.0294 61.9646 61.4956 54.4984 61.4956 45.3247C61.4956 36.1511 54.0294 28.6848 44.8557 28.6848C44.7978 28.6848 44.7689 28.6848 44.711 28.6848L46.8525 32.5626C48.4152 35.3987 48.3573 38.7845 46.7078 41.5916C45.0583 44.3986 42.1355 46.0772 38.8654 46.0772H28.2448V46.0482Z" fill="#295E56"/>
</g>
</g>
</svg>
