<svg width="80" height="80" viewBox="0 0 80 80" fill="none" xmlns="http://www.w3.org/2000/svg">
<g id="vuesax/outline/money-recive">
<g id="money-recive">
<path id="Vector" d="M43.5013 54.1666H37.2347C32.8013 54.1666 29.168 50.4333 29.168 45.8333C29.168 44.4666 30.3013 43.3333 31.668 43.3333C33.0346 43.3333 34.168 44.4666 34.168 45.8333C34.168 47.6666 35.5347 49.1666 37.2347 49.1666H43.5013C44.8013 49.1666 45.8346 48 45.8346 46.5666C45.8346 44.7666 45.3347 44.5 44.2013 44.1L34.168 40.5999C32.0346 39.8666 29.168 38.3 29.168 33.4C29.168 29.2333 32.468 25.8 36.5013 25.8H42.7679C47.2013 25.8 50.8346 29.5333 50.8346 34.1333C50.8346 35.5 49.7013 36.6333 48.3346 36.6333C46.968 36.6333 45.8346 35.5 45.8346 34.1333C45.8346 32.3 44.4679 30.8 42.7679 30.8H36.5013C35.2013 30.8 34.168 31.9667 34.168 33.4C34.168 35.2 34.6679 35.4666 35.8013 35.8666L45.8346 39.3666C47.968 40.1 50.8346 41.6666 50.8346 46.5666C50.8346 50.7666 47.5346 54.1666 43.5013 54.1666Z" fill="#295E56"/>
<path id="Vector_2" d="M40 57.5C38.6333 57.5 37.5 56.3667 37.5 55V25C37.5 23.6333 38.6333 22.5 40 22.5C41.3667 22.5 42.5 23.6333 42.5 25V55C42.5 56.3667 41.3667 57.5 40 57.5Z" fill="#295E56"/>
<path id="Vector_3" d="M40.0013 75.8334C20.2346 75.8334 4.16797 59.7667 4.16797 40C4.16797 20.2334 20.2346 4.16669 40.0013 4.16669C41.368 4.16669 42.5013 5.30002 42.5013 6.66669C42.5013 8.03335 41.368 9.16669 40.0013 9.16669C23.0013 9.16669 9.16797 23 9.16797 40C9.16797 57 23.0013 70.8334 40.0013 70.8334C57.0013 70.8334 70.8346 57 70.8346 40C70.8346 38.6334 71.968 37.5 73.3346 37.5C74.7013 37.5 75.8346 38.6334 75.8346 40C75.8346 59.7667 59.768 75.8334 40.0013 75.8334Z" fill="#295E56"/>
<path id="Vector_4" d="M70.0013 25.8333H56.668C55.3013 25.8333 54.168 24.7 54.168 23.3333V10C54.168 8.63333 55.3013 7.5 56.668 7.5C58.0346 7.5 59.168 8.63333 59.168 10V20.8333H70.0013C71.368 20.8333 72.5013 21.9667 72.5013 23.3333C72.5013 24.7 71.368 25.8333 70.0013 25.8333Z" fill="#295E56"/>
<path id="Vector_5" d="M56.6674 25.8333C56.0341 25.8333 55.4008 25.6 54.9008 25.1C53.9341 24.1333 53.9341 22.5333 54.9008 21.5667L71.5675 4.89999C72.5341 3.93332 74.1341 3.93332 75.1008 4.89999C76.0674 5.86665 76.0674 7.46665 75.1008 8.43331L58.4341 25.1C57.9341 25.6 57.3008 25.8333 56.6674 25.8333Z" fill="#295E56"/>
</g>
</g>
</svg>
