<svg width="60" height="58" viewBox="0 0 60 58" fill="none" xmlns="http://www.w3.org/2000/svg">
<g id="vuesax/outline/card-tick">
<g id="card-tick">
<path id="Vector" d="M55 25.7549H5C3.975 25.7549 3.125 24.9403 3.125 23.958C3.125 22.9757 3.975 22.1611 5 22.1611H55C56.025 22.1611 56.875 22.9757 56.875 23.958C56.875 24.9403 56.025 25.7549 55 25.7549Z" fill="#DB7F28"/>
<path id="Vector_2" d="M28.8756 50.9113H16.1006C6.15062 50.9113 3.10059 48.0363 3.10059 38.5967V18.9029C3.10059 11.3561 4.77556 7.16336 13.7006 6.66023C14.4506 6.63627 15.2506 6.6123 16.1006 6.6123H43.8756C53.8256 6.6123 56.8756 9.4873 56.8756 18.9269V29.4925C56.8756 30.4748 56.0256 31.2894 55.0006 31.2894C53.9756 31.2894 53.1256 30.4748 53.1256 29.4925V18.9269C53.1256 11.5238 51.7506 10.2061 43.8756 10.2061H16.1006C15.3006 10.2061 14.5756 10.23 13.8756 10.254C8.45058 10.5654 6.85059 11.7394 6.85059 18.9269V38.6206C6.85059 46.0238 8.22562 47.3415 16.1006 47.3415H28.8756C29.9006 47.3415 30.7506 48.1561 30.7506 49.1383C30.7506 50.1206 29.9256 50.9113 28.8756 50.9113Z" fill="#DB7F28"/>
<path id="Vector_3" d="M25 40.1299H15C13.975 40.1299 13.125 39.3153 13.125 38.333C13.125 37.3507 13.975 36.5361 15 36.5361H25C26.025 36.5361 26.875 37.3507 26.875 38.333C26.875 39.3153 26.025 40.1299 25 40.1299Z" fill="#DB7F28"/>
<path id="Vector_4" d="M45 54.5055C40.85 54.5055 36.95 52.3972 34.85 48.9712C33.725 47.2462 33.125 45.2097 33.125 43.1253C33.125 36.8482 38.45 31.7451 45 31.7451C51.55 31.7451 56.875 36.8482 56.875 43.1253C56.875 45.2097 56.275 47.2462 55.15 48.9951C53.05 52.3972 49.15 54.5055 45 54.5055ZM45 35.3389C40.525 35.3389 36.875 38.8368 36.875 43.1253C36.875 44.5389 37.2749 45.9284 38.0499 47.1264C39.4999 49.4743 42.175 50.9118 45 50.9118C47.825 50.9118 50.5001 49.4743 51.9501 47.1503C52.7251 45.9284 53.125 44.5628 53.125 43.1253C53.125 38.8368 49.475 35.3389 45 35.3389Z" fill="#DB7F28"/>
<path id="Vector_5" d="M43.5743 47.2933C43.0993 47.2933 42.6243 47.1256 42.2493 46.7663L39.7742 44.3944C39.0492 43.6996 39.0492 42.5496 39.7742 41.8548C40.4992 41.16 41.6992 41.16 42.4242 41.8548L43.6243 43.0048L47.6243 39.459C48.3743 38.7881 49.5742 38.836 50.2742 39.5548C50.9742 40.2735 50.9243 41.4236 50.1743 42.0944L44.8493 46.8141C44.4743 47.1256 44.0243 47.2933 43.5743 47.2933Z" fill="#DB7F28"/>
</g>
</g>
</svg>
