<svg width="40" height="40" viewBox="0 0 40 40" fill="none" xmlns="http://www.w3.org/2000/svg">
<g id="vuesax/outline/trontron-(trx)">
<g id="trontron-(trx)">
<path id="Vector" d="M17.0533 36.4673C16.9366 36.4673 16.82 36.4673 16.7034 36.4339C15.72 36.3006 14.8866 35.5672 14.4366 34.4339L3.23667 6.43392C2.78667 5.31725 2.88672 4.23392 3.48672 3.45059C4.10338 2.66725 5.11997 2.30059 6.31997 2.46725L27.9367 5.35059C28.52 5.43392 29.2034 5.76725 29.62 6.18392L34.8367 11.4006C35.8534 12.4339 35.97 14.1173 35.07 15.2673L19.4366 35.1673C18.77 36.0173 17.92 36.4673 17.0533 36.4673ZM5.77004 4.93392C5.57004 4.93392 5.47004 4.98392 5.45337 5.00059C5.45337 5.01725 5.42003 5.20059 5.55337 5.51725L16.7533 33.5173C16.8866 33.8506 17.0366 33.9673 17.0533 33.9673C17.07 33.9673 17.2366 33.9006 17.4533 33.6173L33.0866 13.7173C33.2033 13.5839 33.1867 13.2839 33.0534 13.1673L27.8367 7.95059C27.8034 7.91725 27.6533 7.85059 27.5866 7.83392L6.0033 4.95059C5.91996 4.93392 5.83671 4.93392 5.77004 4.93392Z" fill="#DB7F28"/>
<path id="Vector_2" d="M16.6659 36.2499C16.6326 36.2499 16.5826 36.2499 16.5492 36.2499C15.8659 36.1833 15.3493 35.5833 15.4159 34.8999L17.0325 17.1999L4.18261 5.78326C3.66594 5.3166 3.61595 4.53326 4.08261 4.0166C4.54928 3.49993 5.33261 3.44993 5.84928 3.9166L19.1659 15.7499C19.4659 16.0166 19.6159 16.3999 19.5826 16.7999L17.9159 35.1333C17.8493 35.7666 17.2993 36.2499 16.6659 36.2499Z" fill="#DB7F28"/>
<path id="Vector_3" d="M18.3317 17.9167C17.8817 17.9167 17.4485 17.6667 17.2318 17.2501C16.9651 16.7667 17.065 16.1667 17.4484 15.7834L27.4484 5.7834C27.9317 5.30007 28.7318 5.30007 29.2151 5.7834C29.6985 6.26673 29.6985 7.06673 29.2151 7.55007L22.1318 14.6334L33.1484 12.4334C33.8318 12.3001 34.4818 12.7334 34.6151 13.4167C34.7484 14.1001 34.3151 14.7501 33.6317 14.8834L18.5651 17.9001C18.4984 17.9167 18.4151 17.9167 18.3317 17.9167Z" fill="#DB7F28"/>
</g>
</g>
</svg>
